<svg width="32" height="32" viewBox="0 0 32 32" fill="none" xmlns="http://www.w3.org/2000/svg">
<path d="M31.8967 0.0919159C31.8009 -0.00770053 31.6621 -0.0277071 31.5463 0.0385649L8.44395 13.4826C8.34452 13.5405 8.27933 13.6552 8.27386 13.7827C8.26804 13.9103 8.3223 14.0315 8.41627 14.1011L14.2686 18.423L14.9923 24.5142C15.0058 24.6284 15.0669 24.7284 15.1558 24.7818C15.2017 24.8097 15.2512 24.823 15.3015 24.823C15.3492 24.823 15.3973 24.8101 15.4417 24.7847L20.1392 22.0834L23.716 24.0778C23.7954 24.1224 23.8861 24.1266 23.9673 24.089C24.0485 24.0524 24.113 23.9782 24.1439 23.8848C24.1439 23.8848 32.0187 0.670441 31.9593 0.544149L31.9794 0.484963C32.0252 0.347417 31.9928 0.191115 31.8967 0.0919159ZM9.21059 13.8381L30.4559 1.47487L14.3717 17.649L9.21059 13.8381ZM26.8015 6.10099L28.6644 4.22787L26.8274 6.69869C26.8015 6.51988 26.795 6.33816 26.8073 6.15309C26.8084 6.13309 26.8033 6.11808 26.8015 6.10099ZM26.4817 7.16343L25.214 8.86858C25.1805 8.55097 25.1469 8.23337 25.1134 7.91576C25.1098 7.88075 25.0996 7.85157 25.0872 7.82448L26.3692 6.53572C26.3834 6.74954 26.422 6.95836 26.4817 7.16343ZM24.8279 9.3875L23.8147 10.7509C23.7652 10.2686 23.716 9.78638 23.6665 9.30372C23.665 9.28872 23.6585 9.27788 23.6552 9.26454L24.7041 8.20961C24.7452 8.60224 24.7867 8.99487 24.8279 9.3875ZM23.4275 11.271L22.2974 12.792C22.2333 12.1972 22.1696 11.6028 22.1055 11.008C22.0997 10.953 22.0789 10.9113 22.0534 10.8751L23.2626 9.65926C23.3176 10.1965 23.3726 10.7342 23.4275 11.271ZM21.9125 13.3096L20.7955 14.8118C20.7248 14.0049 20.6545 13.1983 20.5839 12.3914C20.5828 12.3797 20.578 12.3714 20.5759 12.361L21.6899 11.241C21.7642 11.9304 21.8382 12.6202 21.9125 13.3096ZM20.4014 15.3416L19.5918 16.4311C19.4701 15.5262 19.3489 14.6217 19.2272 13.7173L20.176 12.7628C20.2513 13.6227 20.326 14.4821 20.4014 15.3416ZM19.217 16.935L18.2166 18.2805C18.1251 17.1905 18.0334 16.1001 17.9419 15.0098L18.8375 14.1091C18.9639 15.051 19.0906 15.993 19.217 16.935ZM17.821 18.8131L17.2656 19.56C17.2587 19.5692 17.254 19.5809 17.2478 19.5909C17.2452 19.5951 17.2412 19.5971 17.239 19.6013C17.2372 19.6051 17.2372 19.6088 17.2354 19.6126C17.2318 19.6192 17.2267 19.6255 17.2237 19.6326L16.81 20.5875C16.7113 19.2012 16.6239 17.814 16.5543 16.4253C16.554 16.419 16.5511 16.4148 16.5507 16.409L17.5359 15.4183C17.6309 16.5499 17.726 17.6815 17.821 18.8131ZM14.8677 18.1637C14.8659 18.1467 14.8564 18.1325 14.8528 18.1162L16.1366 16.825C16.2175 18.373 16.314 19.9193 16.4305 21.4644L15.512 23.5851L14.8677 18.1637ZM16.2313 23.5314L17.6298 20.3036L19.5022 21.6503L16.2313 23.5314ZM23.6832 23.2654L20.2881 21.3723L17.9751 19.7084L30.5287 2.82282L23.6832 23.2654Z" fill="white"/>
<path d="M0.355802 21.0643C0.371098 21.0668 0.386395 21.0684 0.401691 21.0684C0.553928 21.0684 0.687225 20.9405 0.71017 20.7629C0.739306 20.5358 0.775726 20.3111 0.81943 20.0881C0.856943 19.8956 0.75096 19.7047 0.582699 19.6617C0.414074 19.618 0.247634 19.7401 0.210122 19.9326C0.16314 20.1723 0.123806 20.4145 0.0924845 20.6587C0.0673546 20.8542 0.185356 21.0359 0.355802 21.0643Z" fill="white"/>
<path d="M0.433764 23.7621C0.604574 23.7345 0.723304 23.5537 0.699631 23.359C0.649735 22.9501 0.624241 22.5291 0.624241 22.1086L0.624605 21.9931C0.62679 21.7956 0.488758 21.6338 0.316491 21.6313H0.312849C0.142039 21.6313 0.00291361 21.7885 0.000728403 21.9844L0 22.1086C0 22.5617 0.0273151 23.0156 0.0815811 23.4574C0.103069 23.6362 0.237095 23.7654 0.39006 23.7654C0.404628 23.7654 0.419196 23.7641 0.433764 23.7621Z" fill="white"/>
<path d="M14.1547 27.6927C13.993 27.6231 13.8131 27.7148 13.7519 27.899C13.6048 28.3392 13.4303 28.7489 13.2326 29.1165C13.1423 29.2841 13.1881 29.5041 13.3349 29.6079C13.3859 29.6438 13.4424 29.6613 13.4981 29.6613C13.603 29.6613 13.7053 29.6008 13.7639 29.4912C13.9821 29.0857 14.174 28.6359 14.335 28.1545C14.3966 27.9695 14.3161 27.7631 14.1547 27.6927Z" fill="white"/>
<path d="M1.35256 25.8276C1.18066 25.4283 1.03643 25.0023 0.92353 24.5605C0.875819 24.3709 0.70246 24.2646 0.536748 24.3171C0.371401 24.3725 0.27598 24.5705 0.324783 24.7602C0.447155 25.2416 0.604854 25.7067 0.793146 26.1435C0.847412 26.2694 0.958129 26.3428 1.07322 26.3428C1.11983 26.3428 1.16682 26.3307 1.21088 26.3057C1.36531 26.2181 1.42868 26.0043 1.35256 25.8276Z" fill="white"/>
<path d="M7.14965 29.1938C7.12779 29.1363 7.10667 29.0784 7.08737 29.0192C7.20209 28.9137 7.23887 28.727 7.16713 28.5728C7.11723 28.4661 7.02764 28.4006 6.93076 28.3865C6.90527 28.2377 6.88669 28.0868 6.8754 27.9326C6.8612 27.7358 6.70678 27.5837 6.53851 27.6062C6.36661 27.6225 6.23914 27.795 6.25335 27.9913C6.26937 28.2114 6.29778 28.4277 6.33857 28.6382C6.12078 28.7345 5.89643 28.8058 5.66844 28.8504C5.49836 28.8833 5.38436 29.068 5.41313 29.2622C5.44263 29.4572 5.60507 29.5877 5.77369 29.5544C6.02827 29.5043 6.27738 29.4272 6.52067 29.3235C6.53888 29.376 6.55745 29.4281 6.57748 29.4798C6.62884 29.6135 6.7432 29.694 6.86375 29.694C6.90563 29.694 6.94788 29.6844 6.9883 29.664C7.14637 29.5852 7.21848 29.3747 7.14965 29.1938Z" fill="white"/>
<path d="M4.64564 28.8757C4.27088 28.8215 3.9034 28.6969 3.5534 28.5064C3.39825 28.4218 3.21142 28.4972 3.13748 28.6752C3.06355 28.8532 3.12947 29.0666 3.28535 29.1512C3.69544 29.3746 4.12702 29.5205 4.5677 29.5842C4.58118 29.5863 4.59429 29.5871 4.6074 29.5871C4.76219 29.5871 4.89658 29.455 4.91661 29.2745C4.93773 29.0795 4.81645 28.9003 4.64564 28.8757Z" fill="white"/>
<path d="M12.5931 30.0676C12.3152 30.3952 12.0096 30.6607 11.6855 30.8562C11.5333 30.9483 11.475 31.1642 11.5555 31.3392C11.6112 31.4601 11.7194 31.5297 11.8315 31.5297C11.8807 31.5297 11.9306 31.5164 11.9772 31.4885C12.3593 31.2576 12.7173 30.947 13.0411 30.5661C13.1612 30.4239 13.1583 30.1985 13.0349 30.0609C12.911 29.9242 12.7133 29.9263 12.5931 30.0676Z" fill="white"/>
<path d="M2.21136 27.3173C2.1021 27.1727 1.99903 27.0239 1.90179 26.8709C1.80054 26.7113 1.60533 26.6758 1.46584 26.7921C1.32635 26.9084 1.29576 27.1318 1.39737 27.2915C1.50481 27.4603 1.61844 27.6245 1.73899 27.7841C1.90835 28.0088 2.09081 28.2168 2.28202 28.4031C2.34065 28.4606 2.4124 28.4885 2.48415 28.4885C2.57265 28.4885 2.66006 28.4456 2.72197 28.3631C2.83378 28.213 2.81776 27.9875 2.68664 27.8596C2.51984 27.6962 2.35996 27.5136 2.21136 27.3173Z" fill="white"/>
<path d="M8.74078 26.5863C8.59437 26.4829 8.40171 26.535 8.31138 26.7034C8.25457 26.808 8.20249 26.8985 8.15842 26.9693C7.98397 27.2511 7.78985 27.5074 7.58116 27.7329C7.45551 27.8684 7.45005 28.0943 7.56841 28.2381C7.6296 28.3127 7.71227 28.3506 7.79531 28.3506C7.87216 28.3506 7.94937 28.3181 8.00946 28.2531C8.24765 27.9955 8.46945 27.7025 8.66794 27.3832C8.71856 27.3015 8.77829 27.1986 8.84312 27.0777C8.93344 26.9097 8.88755 26.6897 8.74078 26.5863Z" fill="white"/>
<path d="M9.37645 25.885C9.55964 25.3665 9.65252 24.9088 9.65252 24.5245C9.65252 24.4591 9.64997 24.3949 9.6445 24.332C9.62702 24.1357 9.47442 23.9977 9.30252 24.0123C9.13134 24.0323 9.00606 24.2074 9.02354 24.4037C9.02718 24.4428 9.02864 24.4833 9.02864 24.5245C9.02864 24.8126 8.94888 25.1906 8.7981 25.6174C8.73327 25.8 8.81048 26.008 8.97037 26.0826C9.00861 26.1001 9.04794 26.1088 9.08728 26.1088C9.21038 26.1084 9.32728 26.0238 9.37645 25.885Z" fill="white"/>
<path d="M8.60088 30.9146C8.25744 30.7304 7.95406 30.477 7.69985 30.1619C7.58258 30.0173 7.38481 30.0085 7.2588 30.1419C7.13206 30.2757 7.12441 30.502 7.24132 30.6471C7.55053 31.0301 7.9191 31.3381 8.33611 31.5611C8.37872 31.5845 8.42388 31.5953 8.46831 31.5953C8.58559 31.5953 8.69812 31.519 8.7513 31.3898C8.82414 31.211 8.75712 30.9984 8.60088 30.9146Z" fill="white"/>
<path d="M6.56577 27.0384C6.58471 27.0426 6.60401 27.0442 6.62295 27.0442C6.77045 27.0442 6.90156 26.9234 6.92924 26.7521C6.96202 26.5487 7.00754 26.3453 7.06363 26.1477C7.11498 25.966 7.20093 25.7284 7.29927 25.4958C7.37466 25.3183 7.30983 25.1044 7.15432 25.0186C6.99844 24.9306 6.8127 25.0069 6.73767 25.1845C6.62768 25.445 6.53008 25.7155 6.46998 25.9264C6.40552 26.1531 6.35344 26.3874 6.31556 26.6216C6.28424 26.8158 6.39605 27.0026 6.56577 27.0384Z" fill="white"/>
<path d="M7.40757 24.5286C7.46511 24.5812 7.53394 24.6066 7.60241 24.6066C7.69383 24.6066 7.78488 24.5603 7.84606 24.4724C8.11157 24.0927 8.37306 23.8838 8.58248 23.8838L8.62181 23.5279L8.60142 23.8847C8.76859 23.8959 8.92192 23.748 8.93321 23.5512C8.9445 23.3549 8.81411 23.1844 8.64221 23.1715C8.63529 23.1711 8.5894 23.1694 8.58248 23.1694C8.16802 23.1694 7.75647 23.4579 7.35876 24.0264C7.25096 24.1806 7.27281 24.4053 7.40757 24.5286Z" fill="white"/>
<path d="M10.7242 31.2302C10.3647 31.2998 9.97542 31.3035 9.58245 31.2394C9.412 31.2148 9.25357 31.3477 9.2299 31.5432C9.20586 31.7387 9.32459 31.9196 9.49504 31.9475C9.71137 31.9825 9.92807 32 10.1393 32C10.3742 32 10.6062 31.9779 10.8287 31.9342C10.9988 31.9012 11.1132 31.7166 11.084 31.5224C11.0553 31.3277 10.8932 31.1973 10.7242 31.2302Z" fill="white"/>
<path d="M14.5317 25.7168C14.3631 25.6901 14.2025 25.8227 14.177 26.0181C14.1479 26.2432 14.1111 26.4695 14.067 26.6942C14.0291 26.8868 14.1351 27.0777 14.303 27.121C14.326 27.1268 14.3489 27.1298 14.3715 27.1298C14.5142 27.1298 14.6432 27.0168 14.6759 26.8509C14.7233 26.6092 14.763 26.3653 14.7943 26.1223C14.8198 25.9273 14.7025 25.746 14.5317 25.7168Z" fill="white"/>
<path d="M23.6662 20.8622C23.9022 20.2145 24.1386 19.5664 24.3746 18.9183C24.4838 18.619 24.0577 18.489 23.9499 18.7845C23.7139 19.4322 23.4775 20.0803 23.2415 20.7284C23.1326 21.0273 23.5588 21.1578 23.6662 20.8622Z" fill="white"/>
<path d="M24.8474 17.6232C25.3197 16.3273 25.7921 15.0315 26.2645 13.7356C26.3737 13.4364 25.9476 13.3063 25.8398 13.6018C25.3674 14.8977 24.8951 16.1935 24.4227 17.4894C24.3138 17.7882 24.7396 17.9187 24.8474 17.6232Z" fill="white"/>
</svg>
