<svg width="290" height="302" viewBox="0 0 290 302" fill="none" xmlns="http://www.w3.org/2000/svg">
<path d="M52.4927 185.092C48.6661 185.092 44.7847 184.6 40.8487 183.616C36.9127 182.632 33.3047 181.101 30.0247 179.024C26.7447 177.056 24.0661 174.487 21.9887 171.316C20.0207 168.145 19.0367 164.319 19.0367 159.836C19.0367 156.884 19.5834 153.604 20.6767 149.996C21.8794 146.388 23.6287 143.6 25.9247 141.632C26.3621 141.195 26.7994 140.976 27.2367 140.976C27.5647 140.976 27.7287 141.14 27.7287 141.468C27.7287 141.905 27.0727 142.835 25.7607 144.256C24.5581 145.677 23.9567 147.7 23.9567 150.324V151.8C24.9407 158.141 27.4007 163.335 31.3367 167.38C35.2727 171.425 40.0287 174.377 45.6047 176.236C51.1807 178.095 56.8661 179.024 62.6607 179.024C65.5034 179.024 68.4554 178.805 71.5167 178.368C74.5781 177.931 77.4207 177.165 80.0447 176.072C87.8074 172.792 95.4607 167.763 103.005 160.984C110.658 154.315 118.038 146.552 125.145 137.696C132.251 128.84 138.921 119.601 145.153 109.98C151.494 100.359 157.289 90.956 162.537 81.772C167.894 72.588 172.595 64.388 176.641 57.172C169.315 54.876 161.935 52.58 154.501 50.284C147.175 47.8787 139.741 45.9107 132.197 44.38C124.653 42.74 116.945 41.92 109.073 41.92C102.513 41.92 95.7341 42.7947 88.7367 44.544C81.7394 46.184 75.2341 48.7533 69.2207 52.252C63.3167 55.7507 58.5061 60.288 54.7887 65.864C51.1807 71.44 49.3767 78.1093 49.3767 85.872C49.3767 87.84 49.4861 90.136 49.7047 92.76C50.0327 95.2747 50.5794 97.7347 51.3447 100.14C52.2194 102.545 53.4767 104.513 55.1167 106.044C56.7567 107.575 58.9434 108.34 61.6767 108.34C61.8954 108.34 62.1141 108.395 62.3327 108.504C62.6607 108.504 62.8247 108.668 62.8247 108.996C62.8247 109.324 62.4967 109.543 61.8407 109.652C61.2941 109.761 60.9114 109.816 60.6927 109.816C58.3967 109.816 56.0461 109.269 53.6407 108.176C49.5954 106.427 46.4247 103.912 44.1287 100.632C41.9421 97.352 40.8487 93.5253 40.8487 89.152C40.8487 81.3893 42.5981 74.6107 46.0967 68.816C49.5954 63.0213 54.2421 58.0467 60.0367 53.892C65.8314 49.7373 72.2274 46.4027 79.2247 43.888C86.2221 41.264 93.3287 39.3507 100.545 38.148C107.761 36.9453 114.485 36.344 120.717 36.344C131.103 36.344 141.326 37.656 151.385 40.28C161.553 42.7947 171.611 45.4187 181.561 48.152C182.326 46.184 183.802 45.0907 185.989 44.872C188.285 44.6533 190.307 44.544 192.057 44.544C194.243 44.544 195.665 44.1067 196.321 43.232C196.977 42.248 197.687 41.756 198.453 41.756C199.109 41.756 199.437 42.0293 199.437 42.576C199.437 42.7947 198.999 43.5053 198.125 44.708C197.359 45.9107 196.485 47.168 195.501 48.48C194.626 49.6827 194.025 50.5027 193.697 50.94H193.861C193.97 50.94 194.025 50.9947 194.025 51.104C195.337 51.3227 196.649 51.5413 197.961 51.76C199.273 51.9787 200.585 52.088 201.897 52.088C203.427 52.088 204.575 51.8693 205.341 51.432C206.215 50.9947 206.817 50.776 207.145 50.776C207.473 50.776 207.637 50.94 207.637 51.268C207.637 51.7053 207.473 52.088 207.145 52.416C206.926 52.6347 206.653 52.8533 206.325 53.072C203.701 55.04 201.459 56.5707 199.601 57.664C197.851 58.7573 195.227 59.4133 191.729 59.632C190.198 65.4267 188.722 71.276 187.301 77.18C185.989 83.084 184.677 88.988 183.365 94.892C182.49 99.156 181.67 103.529 180.905 108.012C180.249 112.385 179.921 116.813 179.921 121.296C179.921 122.717 180.03 124.521 180.249 126.708C180.467 128.785 181.069 130.644 182.053 132.284C183.037 133.815 184.567 134.58 186.645 134.58C189.05 134.58 191.893 133.432 195.173 131.136C198.562 128.84 202.061 126.052 205.669 122.772C209.277 119.492 212.557 116.267 215.509 113.096C218.57 109.925 220.975 107.465 222.725 105.716C230.815 97.516 238.687 89.0973 246.341 80.46C253.994 71.7133 261.21 62.6933 267.989 53.4C268.754 52.416 269.847 50.8853 271.269 48.808C272.69 46.6213 274.221 44.6533 275.861 42.904C277.501 41.0453 278.922 40.116 280.125 40.116C280.671 40.116 281.655 40.3893 283.077 40.936C284.607 41.3733 286.029 41.9747 287.341 42.74C288.653 43.396 289.363 44.052 289.473 44.708C289.473 44.8173 289.418 44.9267 289.309 45.036C289.309 45.036 289.309 45.0907 289.309 45.2L282.749 52.58C280.999 54.6573 279.305 56.844 277.665 59.14C276.025 61.3267 274.385 63.5133 272.745 65.7C265.529 75.9773 258.969 86.692 253.065 97.844C247.161 108.996 241.803 120.367 236.993 131.956C236.555 133.049 236.009 134.416 235.353 136.056C234.697 137.696 234.369 139.172 234.369 140.484C234.369 141.905 234.97 142.616 236.173 142.616C237.157 142.616 238.25 142.233 239.453 141.468C240.765 140.703 241.803 140.047 242.569 139.5C246.395 136.876 250.222 134.361 254.049 131.956C257.875 129.441 261.921 127.364 266.185 125.724C266.294 125.724 266.786 125.56 267.661 125.232C268.535 124.904 269.027 124.74 269.137 124.74C269.465 124.74 269.683 124.904 269.793 125.232C270.011 125.56 270.121 125.833 270.121 126.052C267.387 127.255 264.217 129.004 260.609 131.3C257.001 133.487 253.338 135.947 249.621 138.68C246.013 141.304 242.623 144.037 239.453 146.88C236.391 149.613 233.986 152.183 232.237 154.588C231.799 155.353 231.362 156.119 230.925 156.884C230.597 157.54 230.214 158.305 229.777 159.18C229.011 160.601 227.973 161.476 226.661 161.804C225.458 162.241 224.091 162.46 222.561 162.46C222.123 162.46 221.085 162.351 219.445 162.132C217.914 161.913 216.438 161.585 215.017 161.148C213.595 160.82 212.885 160.328 212.885 159.672C212.885 159.125 213.049 158.251 213.377 157.048C213.705 155.845 214.033 154.643 214.361 153.44C214.798 152.237 215.071 151.417 215.181 150.98C217.367 144.857 220.101 138.735 223.381 132.612C226.661 126.489 230.214 120.476 234.041 114.572C237.867 108.668 241.53 103.037 245.029 97.68C246.45 95.4933 247.871 93.3613 249.293 91.284C250.823 89.0973 252.245 86.9107 253.557 84.724C254.541 83.1933 255.033 81.7173 255.033 80.296C255.033 80.0773 254.978 79.8587 254.869 79.64C254.869 79.312 254.759 79.148 254.541 79.148C254.103 79.148 253.721 79.4213 253.393 79.968C251.206 82.4827 248.199 85.872 244.373 90.136C240.546 94.4 236.282 99.0467 231.581 104.076C226.879 108.996 221.959 113.971 216.821 119C211.791 123.92 206.762 128.457 201.733 132.612C196.813 136.767 192.221 140.101 187.957 142.616C183.693 145.131 180.03 146.388 176.969 146.388C174.235 146.388 172.213 145.459 170.901 143.6C169.589 141.741 168.714 139.555 168.277 137.04C167.949 134.416 167.785 132.065 167.785 129.988C167.785 124.631 168.331 118.727 169.425 112.276C170.518 105.825 171.83 99.3747 173.361 92.924C175.001 86.364 176.477 80.46 177.789 75.212C173.087 82.6467 168.113 90.5187 162.865 98.828C157.617 107.028 152.041 115.228 146.137 123.428C140.233 131.628 133.891 139.445 127.113 146.88C120.443 154.205 113.227 160.711 105.465 166.396C97.8114 172.191 89.5567 176.728 80.7007 180.008C71.9541 183.397 62.5514 185.092 52.4927 185.092ZM127.769 127.856C127.55 127.856 127.386 127.747 127.277 127.528C127.277 127.309 127.277 127.145 127.277 127.036C127.277 126.38 127.331 125.779 127.441 125.232C127.659 124.576 127.823 123.975 127.933 123.428C129.245 118.508 130.338 113.424 131.213 108.176C132.087 102.819 132.525 97.6253 132.525 92.596C132.525 91.7213 132.47 90.5187 132.361 88.988C132.251 87.4573 131.923 86.036 131.377 84.724C130.939 83.412 130.065 82.756 128.753 82.756C127.659 82.756 126.949 83.1933 126.621 84.068C126.293 84.8333 125.855 85.216 125.309 85.216C124.981 85.216 124.817 85.052 124.817 84.724C124.817 84.5053 124.926 84.1773 125.145 83.74C126.129 81.6627 127.55 79.6947 129.409 77.836C131.267 75.9773 133.399 75.048 135.805 75.048C137.773 75.048 139.194 75.704 140.069 77.016C141.053 78.328 141.654 79.9133 141.873 81.772C142.201 83.5213 142.365 85.1613 142.365 86.692C142.365 93.0333 141.107 99.4293 138.593 105.88C136.078 112.331 133.454 118.399 130.721 124.084C130.611 124.521 130.174 125.287 129.409 126.38C128.753 127.364 128.206 127.856 127.769 127.856Z" fill="url(#paint0_radial_204_3)"/>
<path d="M156.063 287.935C155.625 287.935 155.407 287.88 155.407 287.771C155.407 287.661 155.407 287.607 155.407 287.607C155.516 287.607 155.571 287.552 155.571 287.443C156.992 285.693 158.413 283.999 159.835 282.359C161.256 280.719 162.568 279.024 163.771 277.275C159.725 275.635 156.172 273.284 153.111 270.223C150.159 267.052 148.683 263.116 148.683 258.415C148.683 255.244 149.503 252.128 151.143 249.067C152.892 246.005 155.079 243.6 157.703 241.851C158.249 241.523 158.741 241.359 159.179 241.359C159.725 241.359 159.999 241.523 159.999 241.851C159.999 242.069 159.889 242.288 159.671 242.507C159.452 242.616 159.233 242.78 159.015 242.999C157.593 244.201 156.609 245.732 156.063 247.591C155.625 249.449 155.407 251.308 155.407 253.167C155.407 261.913 159.233 268.419 166.887 272.683C173.665 262.624 179.733 252.237 185.091 241.523C190.557 230.699 196.133 219.984 201.819 209.379C205.645 202.272 210.073 195.329 215.103 188.551C220.241 181.772 225.817 175.704 231.831 170.347C227.348 169.144 222.756 168.269 218.055 167.723C213.463 167.067 208.816 166.739 204.115 166.739C196.789 166.739 189.355 167.559 181.811 169.199C174.376 170.839 167.488 173.463 161.147 177.071C154.805 180.679 149.667 185.489 145.731 191.503C141.904 197.407 139.991 204.732 139.991 213.479C139.991 215.447 140.1 217.743 140.319 220.367C140.647 222.881 141.193 225.341 141.959 227.747C142.833 230.152 144.036 232.12 145.567 233.651C147.207 235.181 149.393 235.947 152.127 235.947C152.345 235.947 152.619 236.001 152.947 236.111C153.275 236.111 153.439 236.275 153.439 236.603C153.439 236.931 153.111 237.149 152.455 237.259C151.799 237.368 151.361 237.423 151.143 237.423C148.847 237.423 146.496 236.876 144.091 235.783C140.045 233.924 136.875 231.409 134.579 228.239C132.283 224.959 131.189 221.132 131.299 216.759V215.939C131.517 209.816 132.775 204.076 135.071 198.719C138.132 191.612 142.615 185.708 148.519 181.007C154.423 176.196 161.092 172.424 168.527 169.691C176.071 166.848 183.779 164.825 191.651 163.623C199.523 162.42 206.957 161.819 213.955 161.819C218.219 161.819 222.483 162.037 226.747 162.475C231.011 162.803 235.22 163.404 239.375 164.279C244.185 160.78 249.324 157.992 254.791 155.915C260.257 153.837 265.943 152.799 271.847 152.799C273.815 152.799 275.783 153.072 277.751 153.619C279.828 154.165 281.577 155.095 282.999 156.407C284.42 157.609 285.131 159.413 285.131 161.819C285.131 162.475 284.912 163.568 284.475 165.099C284.147 166.52 283.709 167.887 283.163 169.199C282.616 170.511 281.96 171.167 281.195 171.167C280.757 171.167 280.539 170.948 280.539 170.511C280.539 169.964 280.648 169.417 280.867 168.871C281.085 168.215 281.195 167.559 281.195 166.903C281.195 164.388 280.211 162.475 278.243 161.163C276.275 159.741 273.979 158.812 271.355 158.375C268.84 157.828 266.599 157.555 264.631 157.555C260.695 157.555 256.977 158.265 253.479 159.687C249.98 161.108 246.7 162.967 243.639 165.263C246.263 165.919 249.105 166.848 252.167 168.051C255.228 169.144 258.125 170.565 260.859 172.315C263.592 174.064 265.779 176.196 267.419 178.711C269.168 181.225 270.043 184.123 270.043 187.403C270.043 191.339 268.949 194.947 266.763 198.227C264.576 201.507 261.733 204.459 258.235 207.083C254.736 209.597 250.909 211.839 246.755 213.807C242.6 215.665 238.445 217.251 234.291 218.563C230.245 219.765 226.637 220.695 223.467 221.351H231.503C234.673 221.351 237.735 221.241 240.687 221.023C243.748 220.695 246.809 220.531 249.871 220.531C253.697 220.531 257.141 221.296 260.203 222.827C263.264 224.248 264.795 227.2 264.795 231.683C264.795 234.744 264.084 238.024 262.663 241.523C261.241 244.912 259.765 247.864 258.235 250.379C255.939 254.424 252.604 258.196 248.231 261.695C243.857 265.193 239.156 268.255 234.127 270.879C229.207 273.393 224.615 275.416 220.351 276.947C214.993 278.696 209.363 280.008 203.459 280.883C201.381 281.211 199.304 281.429 197.227 281.539C195.149 281.648 193.017 281.703 190.831 281.703C188.425 281.703 185.965 281.593 183.451 281.375C181.045 281.265 178.585 280.992 176.071 280.555C175.633 282.195 174.759 283.343 173.447 283.999C172.9 284.327 171.752 284.6 170.003 284.819C168.363 285.037 166.668 285.256 164.919 285.475C163.169 285.693 161.803 286.021 160.819 286.459C160.053 286.787 159.288 287.115 158.523 287.443C157.757 287.771 156.937 287.935 156.063 287.935ZM210.675 219.711C213.08 219.711 216.36 219.273 220.515 218.399C224.669 217.415 229.043 216.048 233.635 214.299C238.336 212.549 242.764 210.527 246.919 208.231C251.073 205.935 254.463 203.42 257.087 200.687C259.82 197.953 261.187 195.111 261.187 192.159C261.187 189.535 260.312 187.129 258.563 184.943C256.813 182.647 254.572 180.679 251.839 179.039C249.215 177.289 246.481 175.813 243.639 174.611C240.905 173.299 238.445 172.315 236.259 171.659C230.355 177.781 225.161 184.888 220.679 192.979C216.196 200.96 211.987 208.777 208.051 216.431C207.832 217.087 207.723 217.579 207.723 217.907C207.723 218.672 208.051 219.164 208.707 219.383C209.472 219.601 210.128 219.711 210.675 219.711ZM177.875 246.115C177.765 246.115 177.656 246.005 177.547 245.787C177.547 245.568 177.547 245.404 177.547 245.295C177.547 244.639 177.601 244.037 177.711 243.491C177.929 242.835 178.093 242.233 178.203 241.687C179.405 236.767 180.444 231.683 181.319 226.435C182.193 221.077 182.631 215.884 182.631 210.855C182.631 209.98 182.576 208.777 182.467 207.247C182.357 205.716 182.029 204.295 181.483 202.983C181.045 201.671 180.225 201.015 179.023 201.015C177.82 201.015 177.055 201.452 176.727 202.327C176.399 203.092 175.961 203.475 175.415 203.475C175.196 203.475 175.087 203.311 175.087 202.983C175.087 202.764 175.196 202.436 175.415 201.999C176.289 199.921 177.656 197.953 179.515 196.095C181.373 194.236 183.505 193.307 185.911 193.307C187.879 193.307 189.355 193.963 190.339 195.275C191.323 196.587 191.924 198.172 192.143 200.031C192.471 201.78 192.635 203.42 192.635 204.951C192.635 211.292 191.323 217.688 188.699 224.139C186.184 230.589 183.56 236.657 180.827 242.343C180.717 242.78 180.28 243.545 179.515 244.639C178.859 245.623 178.312 246.115 177.875 246.115ZM192.143 278.095C193.892 278.095 195.587 278.04 197.227 277.931C198.976 277.821 200.725 277.657 202.475 277.439C206.957 276.783 211.604 275.471 216.415 273.503C221.335 271.425 226.091 268.856 230.683 265.795C235.275 262.733 239.32 259.289 242.819 255.463C246.317 251.636 248.887 247.536 250.527 243.163C250.855 242.288 251.128 241.413 251.347 240.539C251.565 239.664 251.675 238.789 251.675 237.915C251.675 234.963 250.472 232.667 248.067 231.027C245.771 229.387 242.928 228.239 239.539 227.583C236.149 226.817 232.76 226.38 229.371 226.271C226.091 226.052 223.412 225.943 221.335 225.943C219.148 225.943 216.907 225.997 214.611 226.107C212.315 226.216 210.073 226.38 207.887 226.599C205.919 226.817 204.333 227.364 203.131 228.239C202.037 229.004 200.999 230.261 200.015 232.011C198.593 234.635 197.227 237.313 195.915 240.047C194.603 242.78 193.236 245.513 191.815 248.247C189.519 252.948 187.168 257.649 184.763 262.351C182.467 267.052 180.171 271.808 177.875 276.619C180.171 277.165 182.521 277.548 184.927 277.767C187.332 277.985 189.737 278.095 192.143 278.095Z" fill="url(#paint1_radial_204_3)"/>
<defs>
<radialGradient id="paint0_radial_204_3" cx="0" cy="0" r="1" gradientUnits="userSpaceOnUse" gradientTransform="translate(38.0001 222.5) rotate(-35.2333) scale(314.609 326.727)">
<stop stop-color="#1ED0CF"/>
<stop offset="1" stop-color="#DA4167"/>
</radialGradient>
<radialGradient id="paint1_radial_204_3" cx="0" cy="0" r="1" gradientUnits="userSpaceOnUse" gradientTransform="translate(136.283 253.631) rotate(-34.0641) scale(197.149 201.609)">
<stop stop-color="#1ED0CF"/>
<stop offset="1" stop-color="#DA4167"/>
</radialGradient>
</defs>
</svg>
