<svg width="32" height="32" viewBox="0 0 496 282" fill="none" xmlns="http://www.w3.org/2000/svg">
<path d="M241.18 213.324C231.392 228.708 222.001 243.758 200.958 258.379C189.702 266.269 163.794 281.685 126.968 281.685C56.709 281.685 0 230.605 0 140.801C0 62.3154 53.345 0.31543 128.466 0.31543C158.9 0.31543 185.94 10.8364 205.853 26.6194C224.267 41.2694 232.891 55.9234 240.416 69.0754L187.836 95.3484C184.074 86.7224 179.546 77.6994 167.923 67.9424C155.139 57.7874 142.383 54.7904 131.463 54.7904C88.642 54.7904 66.099 94.6154 66.099 138.935C66.099 197.173 95.799 226.078 131.463 226.078C166.026 226.078 179.943 202.036 188.937 186.652L241.18 213.325V213.324ZM425.374 8.57442H496L403.963 273.794H336.366L245.462 8.57442H316.087L370.93 197.174L425.374 8.57442Z" fill="#ffffff"/>
</svg>
